<svg xmlns="http://www.w3.org/2000/svg" viewBox="0 0 147 147"><path d="M73.5 147A73.5 73.5 0 1 0 73.5.01a73.5 73.5 0 0 0 0 146.99Z" fill="#fff"/><path d="m67 125.04-1.07-.22-.7 3.46-2.05-.41c-1.6-.33-2.82.4-3.11 1.85-.29 1.45.56 2.6 2.16 2.93l3.13.63 1.64-8.24Zm-1.95 4.2-.57 2.87-2.03-.41c-.97-.2-1.45-.86-1.28-1.75.18-.9.88-1.3 1.85-1.11l2.03.4ZM47.7 118.49l.53 4.58a2.2 2.2 0 0 0-2.33 1.29c-.6 1.27-.04 2.55 1.4 3.24l2.73 1.3 3.57-7.61-.99-.47-1.59 3.4-1.68-.8-.51-4.4-1.13-.53Zm1.76 9.06-1.64-.78c-.93-.44-1.27-1.16-.9-1.93.35-.78 1.12-.96 2.05-.52l1.63.78-1.14 2.45ZM41.12 113.52c-1.84-1.52-4.32-1.22-5.9.72-1.56 1.94-1.35 4.44.5 5.95 1.85 1.53 4.33 1.23 5.9-.7 1.57-1.95 1.36-4.45-.5-5.97Zm-.6.77c1.34 1.1 1.45 3 .24 4.48-1.21 1.5-3.08 1.78-4.42.68-1.37-1.12-1.46-3.01-.25-4.5 1.2-1.5 3.06-1.78 4.42-.66ZM33.79 106.4l-1.44-2.05c-1.35-1.92-3.64-2.58-5.84-1.01-2.2 1.56-2.35 3.95-1 5.88l1.43 2.04 6.85-4.87Zm-1.42-.32-5.26 3.73-.79-1.13c-.93-1.32-1.03-3.1.84-4.42 1.87-1.33 3.48-.64 4.41.69l.8 1.13ZM25.57 91.39c-.65-1.81-2.13-2.63-3.9-2l-5.17 1.87.36 1 5.22-1.89c1.16-.41 2.13.14 2.56 1.35.43 1.2.02 2.24-1.13 2.65l-5.23 1.88.35 1.01 5.18-1.86c1.76-.63 2.4-2.21 1.76-4.01ZM22.58 77.24c-.15-1.8-1.25-3.03-2.87-3.32l-.14 1.11c1.19.2 1.93 1 2.03 2.3.14 1.7-.92 3.03-3.07 3.2-2.14.18-3.4-.96-3.54-2.66-.1-1.3.52-2.26 1.71-2.62l-.32-1.05c-1.6.47-2.51 1.9-2.36 3.74.16 2.1 1.72 3.95 4.6 3.72 2.89-.24 4.13-2.31 3.96-4.42ZM22.95 65.95l.16-1.08-7.34-1.14.4-2.63-.96-.15-.97 6.36.96.15.4-2.65 7.35 1.14ZM23.85 56.83l1.17.43.4-1.1-1.17-.44-.4 1.11ZM33.51 41.34l1.7-1.84c1.58-1.73 1.74-4.12-.24-5.96-1.98-1.84-4.34-1.49-5.93.25l-1.68 1.84 6.15 5.71Zm.01-1.46-4.72-4.39.93-1.02c1.1-1.19 2.8-1.66 4.48-.1 1.68 1.56 1.34 3.3.25 4.49l-.94 1.02ZM43.62 31.67l4.6-2.86-.5-.84-3.69 2.29-1.56-2.55 2.9-1.8-.52-.84-2.9 1.8-1.29-2.1 3.57-2.22-.51-.83-4.5 2.8 4.4 7.15ZM58.52 24.45c1.75-.54 2.63-1.8 2.2-3.17-.98-3.2-5.2-.58-5.76-2.42-.22-.72.26-1.36 1.29-1.68 1-.32 1.86.02 2.3.84l.83-.66c-.58-1.13-1.95-1.57-3.42-1.11-1.58.5-2.44 1.7-2.05 2.94.87 2.85 5.08.3 5.75 2.44.24.8-.3 1.54-1.4 1.89a2.16 2.16 0 0 1-2.66-1.2l-.89.62c.72 1.39 2.26 2 3.8 1.51ZM67.55 22.41l1.09-.1-.81-8.37-1.09.11.81 8.36ZM80.18 22.58c1.18.15 2.32-.24 2.8-1.04l-.16 1.28.99.13.54-4.3-3.93-.5-.11.94 2.9.37c-.22 1.46-1.34 2.35-2.9 2.15-1.67-.22-2.75-1.54-2.48-3.66.26-2.12 1.64-3.14 3.33-2.92 1.32.17 2.16 1 2.25 2.2l1.1-.08c-.13-1.65-1.37-2.85-3.23-3.09-2.08-.26-4.21.9-4.57 3.75-.36 2.84 1.4 4.5 3.47 4.77ZM90.25 24.73l.98.42L93.8 19l1.33 7.8 1.12.47 3.24-7.75-.99-.41-2.58 6.16-1.32-7.82-1.11-.47-3.24 7.75ZM103.29 30.06l-.73 1.02.96.69.72-1.02-.95-.69ZM115.33 43.7l.61.9 6.93-4.76-.62-.9-6.92 4.75ZM119.99 51.45l.91 2.32c.86 2.2 2.93 3.37 5.44 2.37 2.51-1 3.23-3.28 2.37-5.47l-.91-2.32-7.81 3.1Zm1.3.64 6-2.38.5 1.29c.6 1.5.27 3.25-1.86 4.1-2.13.84-3.54-.22-4.13-1.72l-.5-1.29ZM124.22 64.8l.56 5.4.97-.1-.44-4.31 2.97-.31.35 3.39.98-.1-.35-3.4 2.46-.25.43 4.18.97-.1-.55-5.27-8.35.88ZM124.73 78.82l-.17 1.05 6.56 1.12-7.27 3.06-.2 1.2 8.28 1.4.18-1.05-6.6-1.12 7.3-3.05.2-1.2-8.28-1.41ZM120.63 94.25l-.43 1 6.8 2.99-1.06 2.44.89.4 2.56-5.9-.9-.4-1.06 2.46-6.8-2.99ZM116.4 102.16l-.63.9 6.9 4.8.62-.9-6.9-4.8ZM109.4 110.67l-.78.76 5.16 5.35-1.9 1.86.67.7 4.6-4.5-.68-.7-1.9 1.87-5.17-5.34ZM100.7 117.56l-.95.56 1.8 3.03-.05 5.73 1.06-.64v-4.48l3.9 2.14 1.06-.64-5.03-2.68-1.79-3.02ZM91.43 123.47l-.4-1.18-1.1.37.39 1.19 1.11-.38Z"/></svg>
